<svg width="25" height="25" viewBox="0 0 25 25" fill="none" xmlns="http://www.w3.org/2000/svg">
<path d="M2.81881 6.00521C2.83228 5.86962 2.80651 5.71268 2.80915 5.57353C2.81779 5.11853 3.0035 4.67309 3.30606 4.33368C3.54713 4.06331 3.87701 3.83953 4.22994 3.74146C4.68 3.61637 5.18602 3.66212 5.65096 3.66215L7.39973 3.66243C7.71969 3.66246 8.04605 3.67537 8.36509 3.65687L8.38104 3.66834C8.11039 3.94756 7.83936 4.23587 7.61181 4.55149C7.09888 5.26284 6.75478 6.08678 6.58429 6.94237C6.54012 7.164 6.49888 7.39199 6.48968 7.61796L4.70062 7.61209C3.93315 7.57025 3.29251 7.16443 2.99249 6.45574C2.96435 6.38928 2.93678 6.32059 2.91575 6.25159C2.89114 6.17087 2.88617 6.07618 2.82566 6.01212L2.81881 6.00521Z" fill="#003142"/>
<path d="M22.6584 9.83781L22.6595 10.8453L22.6595 12.7672L22.6595 18.582L22.6558 21.6371L22.6547 22.4005C22.6543 22.5828 22.6586 22.7685 22.632 22.9494C22.5785 23.3127 22.4075 23.647 22.1523 23.9121C21.8306 24.2464 21.3815 24.4531 20.9133 24.4626L20.2964 24.4632C20.1906 24.463 20.0504 24.479 19.9498 24.4488C19.9003 24.4008 19.9107 24.3213 19.9101 24.2576L19.9057 21.2878L19.9113 20.7672L19.9208 18.4919L19.9327 13.8998L19.9323 12.2681V11.7498C19.9333 11.6518 19.9289 11.5469 19.9467 11.4502C19.9539 11.4418 19.9583 11.4297 19.9683 11.4251C19.9951 11.4127 20.1221 11.4249 20.1583 11.4245L20.9739 11.4093C21.1096 11.4009 21.2361 11.3816 21.3663 11.343C21.903 11.1838 22.3461 10.7536 22.5449 10.2406C22.5718 10.1711 22.5982 10.1015 22.617 10.0294C22.6337 9.96581 22.6263 9.89597 22.6584 9.83781Z" fill="#003142"/>
<path d="M8.3651 3.65687C8.50047 3.61452 8.60469 3.47612 8.71352 3.38893L9.1429 3.06889C9.30343 2.95843 9.49088 2.87833 9.64716 2.76533C9.64917 2.76385 9.66472 2.75083 9.66484 2.74887C9.66579 2.73354 9.54476 2.54836 9.52969 2.52215L8.87068 1.37357C8.79057 1.232 8.68612 1.08924 8.62484 0.938873C8.60781 0.897092 8.60107 0.837238 8.60822 0.792876C8.61459 0.753148 8.67799 0.700726 8.71194 0.681907C8.7668 0.651517 8.83814 0.639351 8.89848 0.660923C8.95929 0.68266 9.01242 0.77291 9.04672 0.82377C9.14549 0.970107 9.22755 1.12836 9.31494 1.28155L9.64076 1.83943L9.89284 2.26891C9.94574 2.35896 10.005 2.4481 10.0436 2.54531L10.0488 2.55919C10.4456 2.40403 10.8293 2.25524 11.2455 2.15505C11.4063 2.11633 11.5715 2.09429 11.7351 2.07017C12.3524 1.97915 12.9848 1.96582 13.6032 2.05037C13.7711 2.07333 13.9432 2.09358 14.1078 2.13442C14.3643 2.19807 14.6215 2.26447 14.8709 2.35164C15.0497 2.4141 15.2337 2.50561 15.4172 2.54819C15.4512 2.4562 15.5084 2.38022 15.5564 2.29562L15.9535 1.6115L16.3502 0.925185C16.4017 0.841976 16.4618 0.722773 16.5448 0.666307C16.585 0.638904 16.6252 0.645848 16.6708 0.652963C16.7375 0.677513 16.8168 0.718607 16.8461 0.788257C16.8688 0.84222 16.8381 0.927839 16.813 0.976788L16.734 1.11739L15.9984 2.3949C15.9502 2.47978 15.8116 2.65546 15.8095 2.74855C16.0767 2.93114 16.3562 3.08929 16.6125 3.28837L16.9022 3.53596C17.0114 3.6284 17.1232 3.71718 17.2238 3.81937C18.1093 4.71899 18.662 5.83315 18.8918 7.0649C18.9242 7.23877 18.9669 7.4423 18.9648 7.61918L6.48969 7.61796C6.49889 7.39199 6.54013 7.16399 6.58429 6.94237C6.75479 6.08677 7.09889 5.26284 7.61182 4.55149C7.83937 4.23587 8.1104 3.94755 8.38105 3.66834L8.3651 3.65687Z" fill="#38E082"/>
<path d="M9.77136 4.83735C9.8824 4.82697 9.98183 4.82441 10.0825 4.87919C10.2013 4.94388 10.3243 5.0676 10.3592 5.19922C10.3914 5.32081 10.3766 5.48063 10.3126 5.589C10.2271 5.73353 10.1055 5.8141 9.94435 5.85644C9.84384 5.86066 9.74955 5.86688 9.65689 5.81985C9.51922 5.74997 9.40532 5.63969 9.36008 5.49003C9.32493 5.37391 9.34725 5.18678 9.40866 5.08138C9.48388 4.95225 9.6318 4.87528 9.77136 4.83735Z" fill="#FEFEFE"/>
<path d="M15.4972 4.8374C15.6211 4.83178 15.7513 4.83075 15.8607 4.89659C15.9722 4.96368 16.0649 5.06506 16.0954 5.19303C16.1318 5.34556 16.1153 5.50322 16.0281 5.6355C15.9453 5.76118 15.8299 5.81315 15.6888 5.84578C15.5745 5.85622 15.4672 5.85634 15.3631 5.80253C15.2347 5.73622 15.1383 5.61662 15.0991 5.4789C15.0631 5.35272 15.0714 5.207 15.1378 5.09272C15.2141 4.9614 15.3528 4.87431 15.4972 4.8374Z" fill="#FEFEFE"/>
<path d="M2.81882 6.00522L2.82567 6.01212C2.88618 6.07619 2.89115 6.17087 2.91576 6.25159C2.93679 6.32059 2.96436 6.38928 2.9925 6.45575C3.29252 7.16444 3.93316 7.57025 4.70063 7.61209L6.48969 7.61797L18.9648 7.61919C19.8279 7.61959 20.7422 7.54119 21.5514 7.89434C21.7779 7.99322 22.0035 8.13019 22.1797 8.30353C22.5938 8.71088 22.6617 9.25616 22.6603 9.80566C22.6602 9.81666 22.661 9.82712 22.6584 9.83781C22.6263 9.89597 22.6337 9.96581 22.617 10.0294C22.5981 10.1015 22.5718 10.1711 22.5449 10.2406C22.3461 10.7536 21.903 11.1838 21.3663 11.343C21.2361 11.3816 21.1096 11.4009 20.9739 11.4093L20.1582 11.4245C20.1221 11.4249 19.995 11.4127 19.9683 11.4251C19.9582 11.4297 19.9539 11.4418 19.9467 11.4502C19.9289 11.5469 19.9333 11.6518 19.9323 11.7498V12.2681L19.9327 13.8998L19.9207 18.4919L19.9113 20.7672L19.9057 21.2878L17.6989 21.2922L17.3851 21.2938C17.3065 21.2946 17.2043 21.2842 17.132 21.3162C17.1701 21.4 17.2058 21.4954 17.2592 21.5705C17.2616 21.5959 17.2854 21.6343 17.2965 21.6583L17.412 21.8978L17.7498 22.5992C17.8488 22.8027 17.9869 23.0283 18.039 23.2483C18.0752 23.4011 18.0729 23.562 18.036 23.7146C17.9798 23.9466 17.8062 24.1794 17.5999 24.3022C17.3651 24.4418 17.0821 24.4734 16.8187 24.4048C16.6255 24.3544 16.4466 24.2285 16.3233 24.074C16.1727 23.8853 16.0809 23.6261 15.9747 23.4098L15.3423 22.11C15.2142 21.842 15.0956 21.551 14.9412 21.2977L14.935 21.2877L11.1052 21.2932L10.4578 21.2906L9.50356 23.3065L9.30368 23.7296C9.24741 23.8527 9.19451 23.9828 9.11377 24.0926C9.00384 24.2421 8.84069 24.368 8.66506 24.4317C8.42181 24.5199 8.13095 24.5068 7.89747 24.3958C7.66131 24.2833 7.47834 24.0697 7.39397 23.8251C7.33937 23.6667 7.32941 23.4847 7.36487 23.321C7.4167 23.0818 7.56443 22.8432 7.66762 22.6214L8.28653 21.3032C8.00816 21.2703 7.70107 21.2938 7.41989 21.2938L5.61251 21.2942C5.26812 21.2942 4.91046 21.3135 4.56771 21.279C4.04851 21.2268 3.57203 20.9562 3.24554 20.5548C3.01111 20.2665 2.86527 19.9064 2.82379 19.5386C2.79336 19.2688 2.80888 18.9857 2.80873 18.7144L2.80846 17.3324L2.8087 12.7775L2.80844 8.1745L2.80837 6.77203C2.8085 6.52066 2.7917 6.25503 2.81882 6.00522Z" fill="#4286F8"/>
<path d="M13.0311 9.80209C13.0973 9.70603 13.1523 9.66769 13.2681 9.64766C13.3281 9.63731 13.4166 9.62981 13.4699 9.66269L13.4913 9.67966C13.5652 9.739 13.6211 9.79972 13.6759 9.87735L13.6704 10.6848C13.67 10.8406 13.6893 11.0132 13.6719 11.1668C13.841 11.2002 14.025 11.2498 14.1726 11.3414C14.2805 11.4083 14.3858 11.5085 14.4793 11.5951C14.5619 11.6717 14.6393 11.7397 14.7028 11.8333C14.8296 12.0205 14.9625 12.2967 15.0038 12.5212C15.0263 12.6436 15.0245 12.7706 15.0233 12.8947C15.0222 13.0008 15.0197 13.1113 14.9979 13.2154C14.942 13.4826 14.8313 13.7399 14.6629 13.9567C14.6006 14.0368 14.5231 14.1202 14.4517 14.1925C14.4193 14.2253 14.368 14.2534 14.3597 14.3005C14.355 14.3274 14.3806 14.3818 14.3916 14.4059L14.5515 14.7215L14.9629 15.5687L15.2984 16.29L15.8049 17.3413L16.0591 17.8486L16.3194 18.4228L16.6229 18.9937C16.6731 19.0944 16.7079 19.2015 16.7565 19.3022L17.092 19.9829L17.3949 20.6362L17.5358 20.9107L17.6396 21.1529C17.6542 21.1895 17.662 21.2308 17.6813 21.2651L17.6989 21.2922L17.3851 21.2938C17.3065 21.2946 17.2043 21.2842 17.132 21.3162C17.1049 21.2978 17.0458 21.133 17.0279 21.0955L16.5774 20.1553L14.4511 15.7723L14.0412 14.917C13.9481 14.7178 13.8579 14.5016 13.7409 14.3155L13.7309 14.2997C14.0159 14.0501 14.2429 13.7692 14.3594 13.4043C14.6073 12.6275 14.2537 11.7598 13.5628 11.3348C13.5045 11.2989 13.0892 11.1345 13.0824 11.1216C13.0717 11.1013 13.0807 11.0031 13.0806 10.974L13.078 10.3779C13.0783 10.2075 13.1102 9.95372 13.0311 9.80209Z" fill="#3971B4"/>
<path d="M8.28653 21.3032L8.29003 21.3011L10.1184 17.4448L10.2611 17.1206L10.4485 16.7487L10.9896 15.5908L11.4658 14.5835C11.4953 14.5214 11.5676 14.4191 11.5797 14.3556C11.5841 14.3325 11.4455 14.2192 11.4208 14.1969C11.1326 13.9371 10.9371 13.5992 10.8609 13.2202C10.772 12.7781 10.8649 12.2773 11.1189 11.9024C11.3151 11.6128 11.5882 11.3688 11.9151 11.2331C12.0672 11.1699 12.2251 11.135 12.3862 11.1038L12.3822 9.97885C12.39 9.86919 12.417 9.79541 12.5051 9.72197C12.5816 9.65825 12.6658 9.63022 12.7661 9.64319C12.8773 9.65753 12.9644 9.71444 13.0311 9.80209C13.1102 9.95372 13.0782 10.2075 13.078 10.3779L13.0805 10.974C13.0807 11.0031 13.0716 11.1013 13.0824 11.1216C13.0892 11.1345 13.5045 11.2989 13.5628 11.3348C14.2537 11.7598 14.6073 12.6275 14.3594 13.4043C14.2429 13.7692 14.0159 14.0501 13.7309 14.2997L13.7409 14.3155C13.8579 14.5016 13.9481 14.7178 14.0412 14.917L14.451 15.7723L16.5774 20.1553L17.0279 21.0955C17.0457 21.133 17.1049 21.2978 17.132 21.3162C17.1701 21.4 17.2058 21.4954 17.2592 21.5705C17.2616 21.5959 17.2854 21.6343 17.2965 21.6583L17.412 21.8978L17.7498 22.5992C17.8488 22.8027 17.9869 23.0283 18.039 23.2483C18.0751 23.4011 18.0729 23.562 18.036 23.7146C17.9798 23.9466 17.8062 24.1794 17.5999 24.3022C17.3651 24.4418 17.0821 24.4734 16.8187 24.4048C16.6255 24.3544 16.4466 24.2285 16.3233 24.074C16.1727 23.8853 16.0809 23.6261 15.9747 23.4098L15.3423 22.11C15.2141 21.842 15.0956 21.551 14.9412 21.2977L14.935 21.2877L11.1052 21.2932L10.4578 21.2906L9.50355 23.3065L9.30368 23.7296C9.2474 23.8527 9.1945 23.9828 9.11377 24.0926C9.00383 24.2421 8.84069 24.368 8.66506 24.4317C8.42181 24.5199 8.13095 24.5068 7.89747 24.3958C7.66131 24.2833 7.47833 24.0697 7.39397 23.8251C7.33936 23.6667 7.3294 23.4847 7.36487 23.321C7.4167 23.0818 7.56443 22.8432 7.66761 22.6214L8.28653 21.3032Z" fill="#003142"/>
<path d="M12.8929 13.935C12.7699 13.9679 12.6355 13.9744 12.5093 13.9585C12.1665 13.9152 11.9361 13.7631 11.7274 13.4893C11.5544 13.2622 11.51 12.9813 11.5475 12.7068C11.585 12.4322 11.7395 12.1732 11.9645 12.0066C12.2087 11.8257 12.5193 11.7698 12.8168 11.8103L12.7749 11.8552C12.7339 11.9003 12.6517 11.9232 12.6002 11.9618C12.3932 12.1171 12.2362 12.3705 12.1718 12.6183C12.1523 12.6934 12.1521 12.7738 12.1511 12.851C12.1478 13.0826 12.1744 13.2482 12.3015 13.4491C12.4095 13.6197 12.5507 13.7723 12.7376 13.8583C12.7883 13.8817 12.8527 13.8957 12.8929 13.935Z" fill="#3971B4"/>
<path d="M10.4578 21.2906L10.7372 20.6836L11.6294 18.8244C11.7536 18.5629 11.8542 18.2781 12.0044 18.0302C12.0741 17.9152 12.1499 17.8211 12.2639 17.7465C12.4621 17.617 12.7108 17.6318 12.9332 17.675C12.8445 17.7131 12.7177 17.8433 12.6651 17.9241C12.5897 18.0401 12.5364 18.1857 12.4742 18.3103L12.0335 19.2123L11.9432 19.4282L11.791 19.7315C11.7348 19.8529 11.6881 19.9825 11.628 20.1016L11.4169 20.5113L11.258 20.8802C11.2184 20.9681 11.1689 21.0521 11.1322 21.1412C11.1111 21.1925 11.1067 21.2382 11.1052 21.2932L10.4578 21.2906Z" fill="#3971B4"/>
<path d="M12.8168 11.8103C13.0929 11.8402 13.3204 11.9849 13.4919 12.1992C13.6677 12.4189 13.7594 12.7188 13.7259 12.9989C13.6908 13.2928 13.5289 13.569 13.2945 13.7516C13.1735 13.8459 13.0372 13.8903 12.8929 13.935C12.8527 13.8957 12.7883 13.8817 12.7376 13.8583C12.5507 13.7723 12.4095 13.6196 12.3015 13.4491C12.1744 13.2481 12.1479 13.0826 12.1511 12.851C12.1521 12.7738 12.1523 12.6934 12.1718 12.6183C12.2362 12.3705 12.3932 12.1171 12.6002 11.9617C12.6517 11.9232 12.7339 11.9003 12.7749 11.8551L12.8168 11.8103Z" fill="#4286F8"/>
<path d="M12.9332 17.675C13.0825 17.7374 13.2013 17.8074 13.2996 17.9377C13.3894 18.0569 13.4477 18.2146 13.5141 18.3486L14.0432 19.4513L14.935 21.2877L11.1052 21.2932C11.1067 21.2382 11.1111 21.1925 11.1322 21.1412C11.1688 21.0521 11.2183 20.9681 11.2579 20.8802L11.4169 20.5113L11.628 20.1016C11.6881 19.9825 11.7348 19.8529 11.7909 19.7315L11.9432 19.4282L12.0335 19.2123L12.4741 18.3103C12.5364 18.1857 12.5897 18.0401 12.6651 17.9241C12.7177 17.8433 12.8444 17.7131 12.9332 17.675Z" fill="#4286F8"/>
</svg>
