<svg width="25" height="25" viewBox="0 0 25 25" fill="none" xmlns="http://www.w3.org/2000/svg">
<path d="M11.0732 13.668C11.4002 13.9362 11.6906 14.2744 11.9862 14.5787L13.6029 16.2403C13.8233 16.4657 14.0649 16.7724 14.3128 16.9567V16.9879L11.0828 20.2856C10.7156 19.9808 10.3791 19.5702 10.0439 19.2257L7.8714 16.9919C7.91612 16.8828 8.0341 16.7893 8.11516 16.7056L8.64688 16.1584L11.0732 13.668Z" fill="#30B8F6"/>
<path d="M14.3127 16.988L19.9312 22.7598L14.7696 22.7613L13.8299 22.7616C13.7529 22.7617 13.5648 22.7855 13.4986 22.7619C13.4122 22.7312 13.1295 22.3833 13.0443 22.296L11.0828 20.2856L14.3127 16.988Z" fill="#05599D"/>
<path d="M11.0732 13.6681L13.0338 11.6548C13.1335 11.5524 13.385 11.2253 13.4943 11.1825C13.5467 11.162 13.7125 11.1824 13.7741 11.1823L14.6966 11.1817L19.6823 11.1801C19.7624 11.1801 19.8434 11.1724 19.9207 11.1965L14.3127 16.9568C14.0649 16.7724 13.8233 16.4657 13.6029 16.2403L11.9862 14.5787C11.6905 14.2744 11.4002 13.9362 11.0732 13.6681Z" fill="#5DC8F7"/>
<path d="M13.4703 1.26583L19.9049 1.2635C19.8438 1.43752 19.4512 1.74993 19.3132 1.89004L17.5272 3.72236L7.87082 13.6533L6.25474 15.3079L3.04504 12.0205C3.04772 11.9594 3.06439 11.9597 3.10502 11.918L13.4703 1.26583Z" fill="#5DC8F7"/>
</svg>
